<svg width="60" height="60" viewBox="0 0 60 60" fill="none" xmlns="http://www.w3.org/2000/svg">
<path d="M0 21.6657V20.9769C0 12.6753 5.92031 5.59471 13.9922 4.23131C19.2305 3.3299 24.7734 5.09472 28.5938 8.97232L30 10.3951L31.3008 8.97232C35.2266 5.09472 40.6641 3.3299 46.0078 4.23131C54.082 5.59471 60 12.6753 60 20.9769V21.6657C60 26.5943 57.9844 31.3092 54.4219 34.6702L33.2461 54.7055C32.3672 55.5368 31.207 56 30 56C28.793 56 27.6328 55.5368 26.7539 54.7055L5.57695 34.6702C2.01914 31.3092 3.51563e-05 26.5943 3.51563e-05 21.6657H0Z" fill="#009368"/>
<path d="M17.9838 28.52C17.9838 26.2133 18.3972 24.4067 19.2238 23.1C20.0638 21.7933 21.4505 21.14 23.3838 21.14C25.3172 21.14 26.6972 21.7933 27.5238 23.1C28.3638 24.4067 28.7838 26.2133 28.7838 28.52C28.7838 30.84 28.3638 32.66 27.5238 33.98C26.6972 35.3 25.3172 35.96 23.3838 35.96C21.4505 35.96 20.0638 35.3 19.2238 33.98C18.3972 32.66 17.9838 30.84 17.9838 28.52ZM26.0238 28.52C26.0238 27.5333 25.9572 26.7067 25.8238 26.04C25.7038 25.36 25.4505 24.8067 25.0638 24.38C24.6905 23.9533 24.1305 23.74 23.3838 23.74C22.6372 23.74 22.0705 23.9533 21.6838 24.38C21.3105 24.8067 21.0572 25.36 20.9238 26.04C20.8038 26.7067 20.7438 27.5333 20.7438 28.52C20.7438 29.5333 20.8038 30.3867 20.9238 31.08C21.0438 31.76 21.2972 32.3133 21.6838 32.74C22.0705 33.1533 22.6372 33.36 23.3838 33.36C24.1305 33.36 24.6972 33.1533 25.0838 32.74C25.4705 32.3133 25.7238 31.76 25.8438 31.08C25.9638 30.3867 26.0238 29.5333 26.0238 28.52ZM30.7935 33.16V30.96L37.3335 21.6H40.5935V30.72H42.3535V33.16H40.5935V36H37.7935V33.16H30.7935ZM37.9735 24.6L33.8735 30.72H37.9735V24.6Z" fill="white"/>
</svg>
